{
	"asset":{
		"generator":"Khronos glTF Blender I/O v3.6.27",
		"version":"2.0"
	},
	"extensionsUsed":[
		"KHR_materials_specular",
		"KHR_materials_ior"
	],
	"scene":0,
	"scenes":[
		{
			"name":"Scene",
			"nodes":[
				0,
				1
			]
		}
	],
	"nodes":[
		{
			"mesh":0,
			"name":"Grip",
			"rotation":[
				0,
				0,
				-0.7071068286895752,
				0.7071068286895752
			]
		},
		{
			"mesh":1,
			"name":"Gun",
			"rotation":[
				0,
				0,
				-0.7071068286895752,
				0.7071068286895752
			]
		}
	],
	"materials":[
		{
			"doubleSided":true,
			"extensions":{
				"KHR_materials_specular":{
					"specularColorFactor":[
						0.02371357561437425,
						0.02371357561437425,
						0.02371357561437425
					]
				},
				"KHR_materials_ior":{
					"ior":1.4500000476837158
				}
			},
			"name":"Material",
			"pbrMetallicRoughness":{
				"baseColorTexture":{
					"index":0
				},
				"metallicFactor":0.5,
				"roughnessFactor":0.10000000149011612
			}
		},
		{
			"doubleSided":true,
			"extensions":{
				"KHR_materials_specular":{
					"specularColorFactor":[
						0.02371357561437425,
						0.02371357561437425,
						0.02371357561437425
					]
				},
				"KHR_materials_ior":{
					"ior":1.4500000476837158
				}
			},
			"name":"Material.001",
			"pbrMetallicRoughness":{
				"baseColorTexture":{
					"index":1
				},
				"metallicFactor":0.5,
				"roughnessFactor":0.10000000149011612
			}
		}
	],
	"meshes":[
		{
			"name":"Plane.001",
			"primitives":[
				{
					"attributes":{
						"POSITION":0,
						"NORMAL":1,
						"TEXCOORD_0":2
					},
					"indices":3,
					"material":0
				}
			]
		},
		{
			"name":"Plane.003",
			"primitives":[
				{
					"attributes":{
						"POSITION":4,
						"NORMAL":5,
						"TEXCOORD_0":6
					},
					"indices":7,
					"material":1
				}
			]
		}
	],
	"textures":[
		{
			"sampler":0,
			"source":0
		},
		{
			"sampler":0,
			"source":1
		}
	],
	"images":[
		{
			"mimeType":"image/png",
			"name":"Grip",
			"uri":"Grip.png"
		},
		{
			"mimeType":"image/png",
			"name":"TExtureSmile",
			"uri":"TExtureSmile.png"
		}
	],
	"accessors":[
		{
			"bufferView":0,
			"componentType":5126,
			"count":332,
			"max":[
				0.4996083676815033,
				1.0000001192092896,
				2.299999952316284
			],
			"min":[
				-1.4996085166931152,
				-1,
				-1
			],
			"type":"VEC3"
		},
		{
			"bufferView":1,
			"componentType":5126,
			"count":332,
			"type":"VEC3"
		},
		{
			"bufferView":2,
			"componentType":5126,
			"count":332,
			"type":"VEC2"
		},
		{
			"bufferView":3,
			"componentType":5123,
			"count":642,
			"type":"SCALAR"
		},
		{
			"bufferView":4,
			"componentType":5126,
			"count":796,
			"max":[
				0.9996083378791809,
				1.1890002489089966,
				7.208001613616943
			],
			"min":[
				-2.500391960144043,
				-1.1890000104904175,
				1
			],
			"type":"VEC3"
		},
		{
			"bufferView":5,
			"componentType":5126,
			"count":796,
			"type":"VEC3"
		},
		{
			"bufferView":6,
			"componentType":5126,
			"count":796,
			"type":"VEC2"
		},
		{
			"bufferView":7,
			"componentType":5123,
			"count":1812,
			"type":"SCALAR"
		}
	],
	"bufferViews":[
		{
			"buffer":0,
			"byteLength":3984,
			"byteOffset":0,
			"target":34962
		},
		{
			"buffer":0,
			"byteLength":3984,
			"byteOffset":3984,
			"target":34962
		},
		{
			"buffer":0,
			"byteLength":2656,
			"byteOffset":7968,
			"target":34962
		},
		{
			"buffer":0,
			"byteLength":1284,
			"byteOffset":10624,
			"target":34963
		},
		{
			"buffer":0,
			"byteLength":9552,
			"byteOffset":11908,
			"target":34962
		},
		{
			"buffer":0,
			"byteLength":9552,
			"byteOffset":21460,
			"target":34962
		},
		{
			"buffer":0,
			"byteLength":6368,
			"byteOffset":31012,
			"target":34962
		},
		{
			"buffer":0,
			"byteLength":3624,
			"byteOffset":37380,
			"target":34963
		}
	],
	"samplers":[
		{
			"magFilter":9728,
			"minFilter":9984
		}
	],
	"buffers":[
		{
			"byteLength":41004,
			"uri":"Zappotronic.bin"
		}
	]
}
