{
	"asset":{
		"generator":"Khronos glTF Blender I/O v3.6.27",
		"version":"2.0"
	},
	"scene":0,
	"scenes":[
		{
			"name":"Scene",
			"nodes":[
				0,
				1,
				2,
				3,
				4,
				5,
				6,
				7,
				8,
				9,
				10,
				11,
				12,
				13,
				14,
				15,
				16,
				17
			]
		}
	],
	"nodes":[
		{
			"mesh":0,
			"name":"Landscape"
		},
		{
			"mesh":1,
			"name":"Rock",
			"rotation":[
				-0.6480661630630493,
				-0.31049785017967224,
				0.08020537346601486,
				0.6907738447189331
			],
			"scale":[
				0.7505216598510742,
				0.7505216598510742,
				1.441074252128601
			],
			"translation":[
				-6.25,
				0.5,
				7.75
			]
		},
		{
			"mesh":2,
			"name":"Rock.001",
			"rotation":[
				-0.6607117652893066,
				0.1912708878517151,
				-0.6570621132850647,
				0.3084557354450226
			],
			"scale":[
				0.7505216598510742,
				0.7505215406417847,
				1.4410741329193115
			],
			"translation":[
				0,
				0,
				4.75
			]
		},
		{
			"mesh":3,
			"name":"Rock.002",
			"rotation":[
				-0.3468775153160095,
				0.5563507080078125,
				-0.12593241035938263,
				0.7445071935653687
			],
			"scale":[
				0.750521719455719,
				0.7505215406417847,
				1.441074252128601
			],
			"translation":[
				-1.1749999523162842,
				0.15000000596046448,
				7.349999904632568
			]
		},
		{
			"mesh":4,
			"name":"Rock.003",
			"rotation":[
				-0.5333526730537415,
				0.05125955864787102,
				0.13375288248062134,
				0.8336771130561829
			],
			"scale":[
				0.7505216002464294,
				0.7505215406417847,
				1.4410741329193115
			],
			"translation":[
				8.25,
				0.25,
				7.25
			]
		},
		{
			"mesh":5,
			"name":"Rock.004",
			"rotation":[
				0.23866117000579834,
				0.4293840229511261,
				0.726427435874939,
				0.48059695959091187
			],
			"scale":[
				0.7505217790603638,
				0.7505216598510742,
				1.4410741329193115
			],
			"translation":[
				3,
				0,
				8.5
			]
		},
		{
			"mesh":6,
			"name":"Rock.005",
			"rotation":[
				-0.89842289686203,
				-0.2472519874572754,
				0.16082444787025452,
				0.3253282308578491
			],
			"scale":[
				0.7505216598510742,
				0.7505214810371399,
				1.4410738945007324
			],
			"translation":[
				-2.491407871246338,
				0.5578430891036987,
				-2.331747531890869
			]
		},
		{
			"mesh":7,
			"name":"Rock.006",
			"rotation":[
				-0.89842289686203,
				-0.2472519874572754,
				0.16082444787025452,
				0.3253282308578491
			],
			"scale":[
				0.7505216598510742,
				0.7505214810371399,
				1.4410738945007324
			],
			"translation":[
				-8.99140739440918,
				0.5578430891036987,
				-4.581747531890869
			]
		},
		{
			"mesh":8,
			"name":"Rock.007",
			"rotation":[
				-0.6875583529472351,
				-0.16806574165821075,
				-0.036577723920345306,
				0.7054640054702759
			],
			"scale":[
				0.7505216598510742,
				0.7505216598510742,
				1.441074252128601
			],
			"translation":[
				-6.241407871246338,
				-0.19215691089630127,
				-1.3317475318908691
			]
		},
		{
			"mesh":9,
			"name":"Rock.008",
			"rotation":[
				-0.6607117652893066,
				0.1912708878517151,
				-0.6570621132850647,
				0.3084557354450226
			],
			"scale":[
				0.7505216598510742,
				0.7505215406417847,
				1.4410741329193115
			],
			"translation":[
				7.25,
				0.25,
				-2.25
			]
		},
		{
			"mesh":10,
			"name":"Rock.009",
			"rotation":[
				-0.89842289686203,
				-0.2472519874572754,
				0.16082444787025452,
				0.3253282308578491
			],
			"scale":[
				0.7505216598510742,
				0.7505214810371399,
				1.4410738945007324
			],
			"translation":[
				-5.491407871246338,
				3.0578432083129883,
				-7.331747531890869
			]
		},
		{
			"mesh":11,
			"name":"Rock.010",
			"rotation":[
				-0.7195904850959778,
				-0.03372042626142502,
				0.15263599157333374,
				0.676575779914856
			],
			"scale":[
				0.7505216598510742,
				0.7505216598510742,
				1.441074252128601
			],
			"translation":[
				-1.9914073944091797,
				3.3078432083129883,
				-6.081747531890869
			]
		},
		{
			"mesh":12,
			"name":"Rock.011",
			"rotation":[
				-0.9861598610877991,
				-0.025874046608805656,
				0.09318041801452637,
				0.13467241823673248
			],
			"scale":[
				0.7505216598510742,
				0.7505215406417847,
				1.4410738945007324
			],
			"translation":[
				3.2585926055908203,
				3.0578432083129883,
				-8.331747055053711
			]
		},
		{
			"mesh":13,
			"name":"Rock.012",
			"rotation":[
				-0.8127878308296204,
				-0.22291678190231323,
				0.1858944147825241,
				0.5051012635231018
			],
			"scale":[
				0.7505216598510742,
				0.7505215406417847,
				1.4410741329193115
			],
			"translation":[
				3.0085926055908203,
				3.0578432083129883,
				-7.331747055053711
			]
		},
		{
			"mesh":14,
			"name":"Rock.013",
			"rotation":[
				-0.6759761571884155,
				0.30592024326324463,
				-0.6364862322807312,
				0.21060483157634735
			],
			"scale":[
				0.7505217790603638,
				0.7505217790603638,
				1.4410743713378906
			],
			"translation":[
				8.25859260559082,
				3.0578432083129883,
				-7.831747055053711
			]
		},
		{
			"mesh":15,
			"name":"Tree",
			"rotation":[
				0.10184717178344727,
				0.043903615325689316,
				0.0646342933177948,
				0.991726815700531
			],
			"translation":[
				-6.25,
				1,
				6.25
			]
		},
		{
			"mesh":16,
			"name":"Tree.001",
			"rotation":[
				-0.24688032269477844,
				-0.08479319512844086,
				0.06525932252407074,
				0.963120698928833
			],
			"translation":[
				1.25,
				3.174999952316284,
				-7.324999809265137
			]
		},
		{
			"mesh":17,
			"name":"Tree.002",
			"rotation":[
				0.012001250870525837,
				-0.04095757380127907,
				-0.28253552317619324,
				0.9583069086074829
			],
			"scale":[
				0.5653132796287537,
				0.5653132796287537,
				0.5653132796287537
			],
			"translation":[
				5,
				2.924999952316284,
				-8.324999809265137
			]
		}
	],
	"materials":[
		{
			"doubleSided":true,
			"name":"Material",
			"pbrMetallicRoughness":{}
		},
		{
			"doubleSided":true,
			"name":"Material.001",
			"pbrMetallicRoughness":{}
		},
		{
			"doubleSided":true,
			"name":"Material.002",
			"pbrMetallicRoughness":{}
		}
	],
	"meshes":[
		{
			"name":"Cube",
			"primitives":[
				{
					"attributes":{
						"POSITION":0,
						"NORMAL":1,
						"TEXCOORD_0":2
					},
					"indices":3,
					"material":0
				}
			]
		},
		{
			"name":"Icosphere",
			"primitives":[
				{
					"attributes":{
						"POSITION":4,
						"NORMAL":5,
						"TEXCOORD_0":6
					},
					"indices":7,
					"material":1
				}
			]
		},
		{
			"name":"Icosphere.001",
			"primitives":[
				{
					"attributes":{
						"POSITION":8,
						"NORMAL":9,
						"TEXCOORD_0":10
					},
					"indices":7,
					"material":1
				}
			]
		},
		{
			"name":"Icosphere.002",
			"primitives":[
				{
					"attributes":{
						"POSITION":11,
						"NORMAL":12,
						"TEXCOORD_0":13
					},
					"indices":7,
					"material":1
				}
			]
		},
		{
			"name":"Icosphere.003",
			"primitives":[
				{
					"attributes":{
						"POSITION":14,
						"NORMAL":15,
						"TEXCOORD_0":16
					},
					"indices":7,
					"material":1
				}
			]
		},
		{
			"name":"Icosphere.004",
			"primitives":[
				{
					"attributes":{
						"POSITION":17,
						"NORMAL":18,
						"TEXCOORD_0":19
					},
					"indices":7,
					"material":1
				}
			]
		},
		{
			"name":"Icosphere.005",
			"primitives":[
				{
					"attributes":{
						"POSITION":20,
						"NORMAL":21,
						"TEXCOORD_0":22
					},
					"indices":7,
					"material":1
				}
			]
		},
		{
			"name":"Icosphere.006",
			"primitives":[
				{
					"attributes":{
						"POSITION":23,
						"NORMAL":24,
						"TEXCOORD_0":25
					},
					"indices":7,
					"material":1
				}
			]
		},
		{
			"name":"Icosphere.007",
			"primitives":[
				{
					"attributes":{
						"POSITION":26,
						"NORMAL":27,
						"TEXCOORD_0":28
					},
					"indices":7,
					"material":1
				}
			]
		},
		{
			"name":"Icosphere.008",
			"primitives":[
				{
					"attributes":{
						"POSITION":29,
						"NORMAL":30,
						"TEXCOORD_0":31
					},
					"indices":7,
					"material":1
				}
			]
		},
		{
			"name":"Icosphere.009",
			"primitives":[
				{
					"attributes":{
						"POSITION":32,
						"NORMAL":33,
						"TEXCOORD_0":34
					},
					"indices":7,
					"material":1
				}
			]
		},
		{
			"name":"Icosphere.010",
			"primitives":[
				{
					"attributes":{
						"POSITION":35,
						"NORMAL":36,
						"TEXCOORD_0":37
					},
					"indices":7,
					"material":1
				}
			]
		},
		{
			"name":"Icosphere.011",
			"primitives":[
				{
					"attributes":{
						"POSITION":38,
						"NORMAL":39,
						"TEXCOORD_0":40
					},
					"indices":7,
					"material":1
				}
			]
		},
		{
			"name":"Icosphere.012",
			"primitives":[
				{
					"attributes":{
						"POSITION":41,
						"NORMAL":42,
						"TEXCOORD_0":43
					},
					"indices":7,
					"material":1
				}
			]
		},
		{
			"name":"Icosphere.013",
			"primitives":[
				{
					"attributes":{
						"POSITION":44,
						"NORMAL":45,
						"TEXCOORD_0":46
					},
					"indices":7,
					"material":1
				}
			]
		},
		{
			"name":"Cylinder",
			"primitives":[
				{
					"attributes":{
						"POSITION":47,
						"NORMAL":48,
						"TEXCOORD_0":49
					},
					"indices":50,
					"material":2
				}
			]
		},
		{
			"name":"Cylinder.001",
			"primitives":[
				{
					"attributes":{
						"POSITION":51,
						"NORMAL":52,
						"TEXCOORD_0":53
					},
					"indices":50,
					"material":2
				}
			]
		},
		{
			"name":"Cylinder.002",
			"primitives":[
				{
					"attributes":{
						"POSITION":54,
						"NORMAL":55,
						"TEXCOORD_0":56
					},
					"indices":50,
					"material":2
				}
			]
		}
	],
	"accessors":[
		{
			"bufferView":0,
			"componentType":5126,
			"count":2020,
			"max":[
				10,
				3.25,
				10
			],
			"min":[
				-10,
				-1,
				-10
			],
			"type":"VEC3"
		},
		{
			"bufferView":1,
			"componentType":5126,
			"count":2020,
			"type":"VEC3"
		},
		{
			"bufferView":2,
			"componentType":5126,
			"count":2020,
			"type":"VEC2"
		},
		{
			"bufferView":3,
			"componentType":5123,
			"count":3276,
			"type":"SCALAR"
		},
		{
			"bufferView":4,
			"componentType":5126,
			"count":134,
			"max":[
				1.0875049829483032,
				0.9245784282684326,
				0.6808308362960815
			],
			"min":[
				-0.8944249749183655,
				-0.8690742254257202,
				-0.7133069038391113
			],
			"type":"VEC3"
		},
		{
			"bufferView":5,
			"componentType":5126,
			"count":134,
			"type":"VEC3"
		},
		{
			"bufferView":6,
			"componentType":5126,
			"count":134,
			"type":"VEC2"
		},
		{
			"bufferView":7,
			"componentType":5123,
			"count":378,
			"type":"SCALAR"
		},
		{
			"bufferView":8,
			"componentType":5126,
			"count":134,
			"max":[
				1.0875049829483032,
				0.9245784282684326,
				0.6808308362960815
			],
			"min":[
				-0.8944249749183655,
				-0.8690742254257202,
				-0.7133069038391113
			],
			"type":"VEC3"
		},
		{
			"bufferView":9,
			"componentType":5126,
			"count":134,
			"type":"VEC3"
		},
		{
			"bufferView":10,
			"componentType":5126,
			"count":134,
			"type":"VEC2"
		},
		{
			"bufferView":11,
			"componentType":5126,
			"count":134,
			"max":[
				1.0875049829483032,
				0.9245784282684326,
				0.6808308362960815
			],
			"min":[
				-0.8944249749183655,
				-0.8690742254257202,
				-0.7133069038391113
			],
			"type":"VEC3"
		},
		{
			"bufferView":12,
			"componentType":5126,
			"count":134,
			"type":"VEC3"
		},
		{
			"bufferView":13,
			"componentType":5126,
			"count":134,
			"type":"VEC2"
		},
		{
			"bufferView":14,
			"componentType":5126,
			"count":134,
			"max":[
				1.0875049829483032,
				0.9245784282684326,
				0.6808308362960815
			],
			"min":[
				-0.8944249749183655,
				-0.8690742254257202,
				-0.7133069038391113
			],
			"type":"VEC3"
		},
		{
			"bufferView":15,
			"componentType":5126,
			"count":134,
			"type":"VEC3"
		},
		{
			"bufferView":16,
			"componentType":5126,
			"count":134,
			"type":"VEC2"
		},
		{
			"bufferView":17,
			"componentType":5126,
			"count":134,
			"max":[
				1.0875049829483032,
				0.9245784282684326,
				0.6808308362960815
			],
			"min":[
				-0.8944249749183655,
				-0.8690742254257202,
				-0.7133069038391113
			],
			"type":"VEC3"
		},
		{
			"bufferView":18,
			"componentType":5126,
			"count":134,
			"type":"VEC3"
		},
		{
			"bufferView":19,
			"componentType":5126,
			"count":134,
			"type":"VEC2"
		},
		{
			"bufferView":20,
			"componentType":5126,
			"count":134,
			"max":[
				1.0875049829483032,
				0.9245784282684326,
				0.6808308362960815
			],
			"min":[
				-0.8944249749183655,
				-0.8690742254257202,
				-0.7133069038391113
			],
			"type":"VEC3"
		},
		{
			"bufferView":21,
			"componentType":5126,
			"count":134,
			"type":"VEC3"
		},
		{
			"bufferView":22,
			"componentType":5126,
			"count":134,
			"type":"VEC2"
		},
		{
			"bufferView":23,
			"componentType":5126,
			"count":134,
			"max":[
				1.0875049829483032,
				0.9245784282684326,
				0.6808308362960815
			],
			"min":[
				-0.8944249749183655,
				-0.8690742254257202,
				-0.7133069038391113
			],
			"type":"VEC3"
		},
		{
			"bufferView":24,
			"componentType":5126,
			"count":134,
			"type":"VEC3"
		},
		{
			"bufferView":25,
			"componentType":5126,
			"count":134,
			"type":"VEC2"
		},
		{
			"bufferView":26,
			"componentType":5126,
			"count":134,
			"max":[
				1.0875049829483032,
				0.9245784282684326,
				0.6808308362960815
			],
			"min":[
				-0.8944249749183655,
				-0.8690742254257202,
				-0.7133069038391113
			],
			"type":"VEC3"
		},
		{
			"bufferView":27,
			"componentType":5126,
			"count":134,
			"type":"VEC3"
		},
		{
			"bufferView":28,
			"componentType":5126,
			"count":134,
			"type":"VEC2"
		},
		{
			"bufferView":29,
			"componentType":5126,
			"count":134,
			"max":[
				1.0875049829483032,
				0.9245784282684326,
				0.6808308362960815
			],
			"min":[
				-0.8944249749183655,
				-0.8690742254257202,
				-0.7133069038391113
			],
			"type":"VEC3"
		},
		{
			"bufferView":30,
			"componentType":5126,
			"count":134,
			"type":"VEC3"
		},
		{
			"bufferView":31,
			"componentType":5126,
			"count":134,
			"type":"VEC2"
		},
		{
			"bufferView":32,
			"componentType":5126,
			"count":134,
			"max":[
				1.0875049829483032,
				0.9245784282684326,
				0.6808308362960815
			],
			"min":[
				-0.8944249749183655,
				-0.8690742254257202,
				-0.7133069038391113
			],
			"type":"VEC3"
		},
		{
			"bufferView":33,
			"componentType":5126,
			"count":134,
			"type":"VEC3"
		},
		{
			"bufferView":34,
			"componentType":5126,
			"count":134,
			"type":"VEC2"
		},
		{
			"bufferView":35,
			"componentType":5126,
			"count":134,
			"max":[
				1.0875049829483032,
				0.9245784282684326,
				0.6808308362960815
			],
			"min":[
				-0.8944249749183655,
				-0.8690742254257202,
				-0.7133069038391113
			],
			"type":"VEC3"
		},
		{
			"bufferView":36,
			"componentType":5126,
			"count":134,
			"type":"VEC3"
		},
		{
			"bufferView":37,
			"componentType":5126,
			"count":134,
			"type":"VEC2"
		},
		{
			"bufferView":38,
			"componentType":5126,
			"count":134,
			"max":[
				1.0875049829483032,
				0.9245784282684326,
				0.6808308362960815
			],
			"min":[
				-0.8944249749183655,
				-0.8690742254257202,
				-0.7133069038391113
			],
			"type":"VEC3"
		},
		{
			"bufferView":39,
			"componentType":5126,
			"count":134,
			"type":"VEC3"
		},
		{
			"bufferView":40,
			"componentType":5126,
			"count":134,
			"type":"VEC2"
		},
		{
			"bufferView":41,
			"componentType":5126,
			"count":134,
			"max":[
				1.0875049829483032,
				0.9245784282684326,
				0.6808308362960815
			],
			"min":[
				-0.8944249749183655,
				-0.8690742254257202,
				-0.7133069038391113
			],
			"type":"VEC3"
		},
		{
			"bufferView":42,
			"componentType":5126,
			"count":134,
			"type":"VEC3"
		},
		{
			"bufferView":43,
			"componentType":5126,
			"count":134,
			"type":"VEC2"
		},
		{
			"bufferView":44,
			"componentType":5126,
			"count":134,
			"max":[
				1.0875049829483032,
				0.9245784282684326,
				0.6808308362960815
			],
			"min":[
				-0.8944249749183655,
				-0.8690742254257202,
				-0.7133069038391113
			],
			"type":"VEC3"
		},
		{
			"bufferView":45,
			"componentType":5126,
			"count":134,
			"type":"VEC3"
		},
		{
			"bufferView":46,
			"componentType":5126,
			"count":134,
			"type":"VEC2"
		},
		{
			"bufferView":47,
			"componentType":5126,
			"count":436,
			"max":[
				1.3612878322601318,
				6.900001049041748,
				2.400172472000122
			],
			"min":[
				-1.8281927108764648,
				-1,
				-1.9726163148880005
			],
			"type":"VEC3"
		},
		{
			"bufferView":48,
			"componentType":5126,
			"count":436,
			"type":"VEC3"
		},
		{
			"bufferView":49,
			"componentType":5126,
			"count":436,
			"type":"VEC2"
		},
		{
			"bufferView":50,
			"componentType":5123,
			"count":882,
			"type":"SCALAR"
		},
		{
			"bufferView":51,
			"componentType":5126,
			"count":436,
			"max":[
				1.3612878322601318,
				6.900001049041748,
				2.400172472000122
			],
			"min":[
				-1.8281927108764648,
				-1,
				-1.9726163148880005
			],
			"type":"VEC3"
		},
		{
			"bufferView":52,
			"componentType":5126,
			"count":436,
			"type":"VEC3"
		},
		{
			"bufferView":53,
			"componentType":5126,
			"count":436,
			"type":"VEC2"
		},
		{
			"bufferView":54,
			"componentType":5126,
			"count":436,
			"max":[
				1.3612878322601318,
				6.900001049041748,
				2.400172472000122
			],
			"min":[
				-1.8281927108764648,
				-1,
				-1.9726163148880005
			],
			"type":"VEC3"
		},
		{
			"bufferView":55,
			"componentType":5126,
			"count":436,
			"type":"VEC3"
		},
		{
			"bufferView":56,
			"componentType":5126,
			"count":436,
			"type":"VEC2"
		}
	],
	"bufferViews":[
		{
			"buffer":0,
			"byteLength":24240,
			"byteOffset":0,
			"target":34962
		},
		{
			"buffer":0,
			"byteLength":24240,
			"byteOffset":24240,
			"target":34962
		},
		{
			"buffer":0,
			"byteLength":16160,
			"byteOffset":48480,
			"target":34962
		},
		{
			"buffer":0,
			"byteLength":6552,
			"byteOffset":64640,
			"target":34963
		},
		{
			"buffer":0,
			"byteLength":1608,
			"byteOffset":71192,
			"target":34962
		},
		{
			"buffer":0,
			"byteLength":1608,
			"byteOffset":72800,
			"target":34962
		},
		{
			"buffer":0,
			"byteLength":1072,
			"byteOffset":74408,
			"target":34962
		},
		{
			"buffer":0,
			"byteLength":756,
			"byteOffset":75480,
			"target":34963
		},
		{
			"buffer":0,
			"byteLength":1608,
			"byteOffset":76236,
			"target":34962
		},
		{
			"buffer":0,
			"byteLength":1608,
			"byteOffset":77844,
			"target":34962
		},
		{
			"buffer":0,
			"byteLength":1072,
			"byteOffset":79452,
			"target":34962
		},
		{
			"buffer":0,
			"byteLength":1608,
			"byteOffset":80524,
			"target":34962
		},
		{
			"buffer":0,
			"byteLength":1608,
			"byteOffset":82132,
			"target":34962
		},
		{
			"buffer":0,
			"byteLength":1072,
			"byteOffset":83740,
			"target":34962
		},
		{
			"buffer":0,
			"byteLength":1608,
			"byteOffset":84812,
			"target":34962
		},
		{
			"buffer":0,
			"byteLength":1608,
			"byteOffset":86420,
			"target":34962
		},
		{
			"buffer":0,
			"byteLength":1072,
			"byteOffset":88028,
			"target":34962
		},
		{
			"buffer":0,
			"byteLength":1608,
			"byteOffset":89100,
			"target":34962
		},
		{
			"buffer":0,
			"byteLength":1608,
			"byteOffset":90708,
			"target":34962
		},
		{
			"buffer":0,
			"byteLength":1072,
			"byteOffset":92316,
			"target":34962
		},
		{
			"buffer":0,
			"byteLength":1608,
			"byteOffset":93388,
			"target":34962
		},
		{
			"buffer":0,
			"byteLength":1608,
			"byteOffset":94996,
			"target":34962
		},
		{
			"buffer":0,
			"byteLength":1072,
			"byteOffset":96604,
			"target":34962
		},
		{
			"buffer":0,
			"byteLength":1608,
			"byteOffset":97676,
			"target":34962
		},
		{
			"buffer":0,
			"byteLength":1608,
			"byteOffset":99284,
			"target":34962
		},
		{
			"buffer":0,
			"byteLength":1072,
			"byteOffset":100892,
			"target":34962
		},
		{
			"buffer":0,
			"byteLength":1608,
			"byteOffset":101964,
			"target":34962
		},
		{
			"buffer":0,
			"byteLength":1608,
			"byteOffset":103572,
			"target":34962
		},
		{
			"buffer":0,
			"byteLength":1072,
			"byteOffset":105180,
			"target":34962
		},
		{
			"buffer":0,
			"byteLength":1608,
			"byteOffset":106252,
			"target":34962
		},
		{
			"buffer":0,
			"byteLength":1608,
			"byteOffset":107860,
			"target":34962
		},
		{
			"buffer":0,
			"byteLength":1072,
			"byteOffset":109468,
			"target":34962
		},
		{
			"buffer":0,
			"byteLength":1608,
			"byteOffset":110540,
			"target":34962
		},
		{
			"buffer":0,
			"byteLength":1608,
			"byteOffset":112148,
			"target":34962
		},
		{
			"buffer":0,
			"byteLength":1072,
			"byteOffset":113756,
			"target":34962
		},
		{
			"buffer":0,
			"byteLength":1608,
			"byteOffset":114828,
			"target":34962
		},
		{
			"buffer":0,
			"byteLength":1608,
			"byteOffset":116436,
			"target":34962
		},
		{
			"buffer":0,
			"byteLength":1072,
			"byteOffset":118044,
			"target":34962
		},
		{
			"buffer":0,
			"byteLength":1608,
			"byteOffset":119116,
			"target":34962
		},
		{
			"buffer":0,
			"byteLength":1608,
			"byteOffset":120724,
			"target":34962
		},
		{
			"buffer":0,
			"byteLength":1072,
			"byteOffset":122332,
			"target":34962
		},
		{
			"buffer":0,
			"byteLength":1608,
			"byteOffset":123404,
			"target":34962
		},
		{
			"buffer":0,
			"byteLength":1608,
			"byteOffset":125012,
			"target":34962
		},
		{
			"buffer":0,
			"byteLength":1072,
			"byteOffset":126620,
			"target":34962
		},
		{
			"buffer":0,
			"byteLength":1608,
			"byteOffset":127692,
			"target":34962
		},
		{
			"buffer":0,
			"byteLength":1608,
			"byteOffset":129300,
			"target":34962
		},
		{
			"buffer":0,
			"byteLength":1072,
			"byteOffset":130908,
			"target":34962
		},
		{
			"buffer":0,
			"byteLength":5232,
			"byteOffset":131980,
			"target":34962
		},
		{
			"buffer":0,
			"byteLength":5232,
			"byteOffset":137212,
			"target":34962
		},
		{
			"buffer":0,
			"byteLength":3488,
			"byteOffset":142444,
			"target":34962
		},
		{
			"buffer":0,
			"byteLength":1764,
			"byteOffset":145932,
			"target":34963
		},
		{
			"buffer":0,
			"byteLength":5232,
			"byteOffset":147696,
			"target":34962
		},
		{
			"buffer":0,
			"byteLength":5232,
			"byteOffset":152928,
			"target":34962
		},
		{
			"buffer":0,
			"byteLength":3488,
			"byteOffset":158160,
			"target":34962
		},
		{
			"buffer":0,
			"byteLength":5232,
			"byteOffset":161648,
			"target":34962
		},
		{
			"buffer":0,
			"byteLength":5232,
			"byteOffset":166880,
			"target":34962
		},
		{
			"buffer":0,
			"byteLength":3488,
			"byteOffset":172112,
			"target":34962
		}
	],
	"buffers":[
		{
			"byteLength":175600,
			"uri":"landscapetesting.bin"
		}
	]
}
